<?xml version="1.0" encoding="UTF-8"?>
<svg xmlns="http://www.w3.org/2000/svg" xmlns:xlink="http://www.w3.org/1999/xlink" width="75px" height="75px" viewBox="0 0 75 75" version="1.1">
<g id="surface1">
<path style=" stroke:none;fill-rule:evenodd;fill:rgb(0%,0%,0%);fill-opacity:1;" d="M 6.25 6.25 L 68.75 6.25 L 68.75 68.75 L 6.25 68.75 Z M 6.25 6.25 "/>
<path style=" stroke:none;fill-rule:evenodd;fill:rgb(100%,100%,100%);fill-opacity:1;" d="M 58.132812 20.148438 L 46.574219 20.148438 L 38.351562 40.839844 L 29.007812 20.148438 L 16.664062 20.148438 L 16.664062 21.179688 L 21.011719 26.492188 L 20.953125 47.023438 L 16.652344 52.894531 L 16.664062 53.867188 L 28.804688 53.867188 L 28.835938 52.972656 L 23.75 47.023438 L 23.882812 30.410156 L 34.613281 53.867188 L 35.90625 53.867188 L 45.433594 29.851562 L 45.433594 49.382812 L 41.527344 53.078125 L 41.527344 53.867188 L 58.132812 53.867188 L 58.132812 52.921875 L 54.324219 49.3125 L 54.273438 24.480469 L 58.132812 21.183594 Z M 58.132812 20.148438 "/>
</g>
</svg>
